<svg width="24" height="24" viewBox="0 0 24 24" fill="none" xmlns="http://www.w3.org/2000/svg">
<path d="M13.5 4.06301C13.5 2.72665 11.8843 2.05739 10.9393 3.00234L6.43934 7.50235H4.50905C3.36772 7.50235 2.19106 8.16679 1.8493 9.4074C1.62147 10.2345 1.5 11.1048 1.5 12.0023C1.5 12.8999 1.62147 13.7702 1.8493 14.5973C2.19106 15.8379 3.36772 16.5023 4.50905 16.5023H6.43934L10.9393 21.0023C11.8843 21.9473 13.5 21.278 13.5 19.9417V4.06301Z" fill="white"/>
<path d="M18.5837 5.10799C18.8766 4.8151 19.3514 4.8151 19.6443 5.10799C23.452 8.9156 23.452 15.089 19.6443 18.8966C19.3514 19.1895 18.8766 19.1895 18.5837 18.8966C18.2908 18.6037 18.2908 18.1288 18.5837 17.8359C21.8055 14.6141 21.8055 9.39048 18.5837 6.16865C18.2908 5.87576 18.2908 5.40088 18.5837 5.10799Z" fill="white"/>
<path d="M15.9323 7.75972C16.2252 7.46683 16.7001 7.46683 16.993 7.75972C19.3361 10.1029 19.3361 13.9019 16.993 16.245C16.7001 16.5379 16.2252 16.5379 15.9323 16.245C15.6394 15.9521 15.6394 15.4772 15.9323 15.1843C17.6897 13.427 17.6897 10.5777 15.9323 8.82038C15.6394 8.52749 15.6394 8.05262 15.9323 7.75972Z" fill="white"/>
</svg>
